<svg xmlns="http://www.w3.org/2000/svg" viewBox="0 0 112 112"><g stroke="#1E3B36" stroke-width="4" stroke-linecap="round" stroke-linejoin="round"><path d="M24 30 C20 56 30 84 56 94 C74 100 92 92 98 82 C84 86 64 84 50 72 C38 62 32 48 32 30Z" fill="#f5d547" stroke-width="4"/><path d="M38 28 C40 52 54 72 76 78 C88 80 96 76 100 70 C90 70 72 66 60 54 C50 44 46 34 46 26Z" fill="#f9e27a" stroke-width="4"/><path d="M24 30 L32 30 L32 22 L26 22Z" fill="#7a5a2a" stroke-width="3"/><path d="M98 82 L100 70 L104 74Z" fill="#5e3d1e" stroke-width="3"/><path d="M34 46 C36 58 42 68 50 74" fill="none" stroke="#fff" stroke-width="3" opacity="0.85"/></g></svg>