<svg xmlns="http://www.w3.org/2000/svg" viewBox="0 0 112 112"><g stroke="#1E3B36" stroke-width="4" stroke-linecap="round" stroke-linejoin="round"><path d="M24 70 L12 74 L8 84 M26 76 L16 84 L14 94 M86 70 L100 74 L104 84 M84 76 L96 84 L98 94" fill="none" stroke-width="4"/><path d="M30 54 L20 40 M82 54 L92 40" fill="none" stroke-width="5"/><path d="M10 30 C10 18 24 14 28 24 L20 28 L28 34 C24 42 10 40 10 30Z" fill="#E5543F" stroke-width="3.5"/><path d="M102 30 C102 18 88 14 84 24 L92 28 L84 34 C88 42 102 40 102 30Z" fill="#E5543F" stroke-width="3.5"/><path d="M18 66 C18 46 36 38 56 38 C76 38 94 46 94 66 C94 78 78 84 56 84 C34 84 18 78 18 66Z" fill="#F08A24"/><path d="M48 38 V28 M64 38 V28" fill="none" stroke-width="3"/><circle cx="48" cy="26" r="3.2" fill="#1E3B36" stroke="none"/><circle cx="64" cy="26" r="3.2" fill="#1E3B36" stroke="none"/><circle cx="40" cy="52" r="2.6" fill="#F39A2B" stroke="none"/><circle cx="56" cy="48" r="2.6" fill="#F39A2B" stroke="none"/><circle cx="72" cy="52" r="2.6" fill="#F39A2B" stroke="none"/><circle cx="48" cy="64" r="2.6" fill="#F39A2B" stroke="none"/><circle cx="64" cy="64" r="2.6" fill="#F39A2B" stroke="none"/><circle cx="32" cy="62" r="2.6" fill="#F39A2B" stroke="none"/><circle cx="80" cy="62" r="2.6" fill="#F39A2B" stroke="none"/><path d="M38 74 C48 78 64 78 74 74" fill="none" stroke-width="2.5"/><path d="M30 50 C34 46 40 44 46 43" fill="none" stroke="#fff" stroke-width="3" opacity="0.85"/></g></svg>