<svg xmlns="http://www.w3.org/2000/svg" viewBox="0 0 112 112"><g stroke="#1E3B36" stroke-width="4" stroke-linecap="round" stroke-linejoin="round"><ellipse cx="48" cy="66" rx="24" ry="30" fill="#7b4b8f" stroke-width="4" transform="rotate(-12 48 66)"/><ellipse cx="72" cy="62" rx="20" ry="25" fill="#8e5aa4" stroke-width="4" transform="rotate(14 72 62)"/><path d="M48 36 C50 26 56 20 62 16" fill="none" stroke-width="4"/><path d="M70 38 C68 28 64 22 62 16" fill="none" stroke-width="4"/><g transform="translate(62 16) rotate(-30)"><path d="M0 0 C7.2 -9.0 18.7 -8.1 24 0 C18.7 8.1 7.2 9.0 0 0Z" fill="#8cc56f" stroke-width="4"/><path d="M3.4 0 L18.7 0" fill="none" stroke-width="2.5"/></g><path d="M36 58 C36 50 40 44 44 42" fill="none" stroke="#fff" stroke-width="3.5" opacity="0.85"/><path d="M64 54 C65 48 68 45 71 44" fill="none" stroke="#fff" stroke-width="3" opacity="0.85"/></g></svg>