<svg xmlns="http://www.w3.org/2000/svg" viewBox="0 0 112 112"><g stroke="#1E3B36" stroke-width="4" stroke-linecap="round" stroke-linejoin="round"><path d="M56 76 L56 106" fill="none" stroke-width="4"/><path d="M53 86 L59 86 M53 94 L59 94" fill="none" stroke-width="2.5"/><path d="M50 72 C44 78 44 86 52 86Z M62 72 C68 78 68 86 60 86Z" fill="#C9A46A" stroke-width="3"/><path d="M56 10 C66 28 84 38 104 46 C90 60 70 68 60 74 L56 78 L52 74 C42 68 22 60 8 46 C28 38 46 28 56 10Z" fill="#C9A46A"/><circle cx="36" cy="46" r="2.6" fill="#8A4B2A" stroke="none"/><circle cx="44" cy="54" r="2.6" fill="#8A4B2A" stroke="none"/><circle cx="76" cy="46" r="2.6" fill="#8A4B2A" stroke="none"/><circle cx="68" cy="54" r="2.6" fill="#8A4B2A" stroke="none"/><circle cx="56" cy="58" r="2.6" fill="#8A4B2A" stroke="none"/><circle cx="28" cy="50" r="2.6" fill="#8A4B2A" stroke="none"/><circle cx="84" cy="50" r="2.6" fill="#8A4B2A" stroke="none"/><circle cx="56" cy="46" r="2.6" fill="#8A4B2A" stroke="none"/><circle cx="50" cy="32" r="3.6" fill="#FFFFFF" stroke-width="3"/><circle cx="50.6" cy="32" r="1.7" fill="#1E3B36" stroke="none"/><circle cx="62" cy="32" r="3.6" fill="#FFFFFF" stroke-width="3"/><circle cx="62.6" cy="32" r="1.7" fill="#1E3B36" stroke="none"/><path d="M46 26 C50 21 53 17 55 14" fill="none" stroke="#fff" stroke-width="3" opacity="0.85"/></g></svg>