<svg xmlns="http://www.w3.org/2000/svg" viewBox="0 0 112 112"><g stroke="#1E3B36" stroke-width="4" stroke-linecap="round" stroke-linejoin="round"><path d="M14 60 L98 60 C98 84 80 100 56 100 C32 100 14 84 14 60Z" fill="#E07B53" stroke-width="4"/><path d="M20 60 C24 38 40 30 56 30 C72 30 88 38 92 60Z" fill="#F2CF4A" stroke-width="4"/><circle cx="36" cy="50" r="1.6" fill="#D9A93A" stroke="none"/><circle cx="46" cy="42" r="1.6" fill="#D9A93A" stroke="none"/><circle cx="58" cy="40" r="1.6" fill="#D9A93A" stroke="none"/><circle cx="70" cy="46" r="1.6" fill="#D9A93A" stroke="none"/><circle cx="80" cy="54" r="1.6" fill="#D9A93A" stroke="none"/><circle cx="50" cy="52" r="1.6" fill="#D9A93A" stroke="none"/><circle cx="64" cy="54" r="1.6" fill="#D9A93A" stroke="none"/><circle cx="40" cy="56" r="1.6" fill="#D9A93A" stroke="none"/><circle cx="30" cy="56" r="1.6" fill="#D9A93A" stroke="none"/><circle cx="74" cy="40" r="1.6" fill="#D9A93A" stroke="none"/><path d="M30 76 C40 82 72 82 82 76" fill="none" stroke-width="3" stroke="#F6C9A8"/><path d="M24 68 C26 78 32 86 40 90" fill="none" stroke="#fff" stroke-width="3" opacity="0.85"/></g></svg>