<svg xmlns="http://www.w3.org/2000/svg" viewBox="0 0 112 112"><g stroke="#1E3B36" stroke-width="4" stroke-linecap="round" stroke-linejoin="round"><path d="M48 108 L50 74 L40 64 M64 108 L62 74 L74 62" fill="#8cc56f" stroke-width="4"/><path d="M44 108 C46 96 46 82 46 70 L66 70 C66 82 66 96 68 108Z" fill="#8cc56f" stroke-width="4"/><circle cx="32" cy="52" r="13" fill="#1E3B36" stroke-width="8"/><circle cx="46" cy="40" r="14" fill="#1E3B36" stroke-width="8"/><circle cx="64" cy="38" r="14" fill="#1E3B36" stroke-width="8"/><circle cx="80" cy="50" r="13" fill="#1E3B36" stroke-width="8"/><circle cx="56" cy="58" r="13" fill="#1E3B36" stroke-width="8"/><circle cx="38" cy="64" r="10" fill="#1E3B36" stroke-width="8"/><circle cx="74" cy="64" r="10" fill="#1E3B36" stroke-width="8"/><circle cx="32" cy="52" r="13" fill="#579660" stroke="none"/><circle cx="46" cy="40" r="14" fill="#579660" stroke="none"/><circle cx="64" cy="38" r="14" fill="#579660" stroke="none"/><circle cx="80" cy="50" r="13" fill="#579660" stroke="none"/><circle cx="56" cy="58" r="13" fill="#579660" stroke="none"/><circle cx="38" cy="64" r="10" fill="#579660" stroke="none"/><circle cx="74" cy="64" r="10" fill="#579660" stroke="none"/><circle cx="44" cy="36" r="3" fill="#aad681" stroke="none"/><circle cx="62" cy="34" r="3" fill="#aad681" stroke="none"/><circle cx="30" cy="48" r="2.5" fill="#aad681" stroke="none"/><circle cx="78" cy="46" r="2.5" fill="#aad681" stroke="none"/><circle cx="54" cy="54" r="2.5" fill="#aad681" stroke="none"/></g></svg>
