<svg xmlns="http://www.w3.org/2000/svg" viewBox="0 0 112 112"><g stroke="#1E3B36" stroke-width="4" stroke-linecap="round" stroke-linejoin="round"><path d="M12 64 C12 50 30 42 56 42 C82 42 100 50 100 64 C100 78 82 86 56 86 C30 86 12 78 12 64Z" fill="#C8243A"/><path d="M30 70 C40 74 50 72 58 76 M62 66 C70 70 78 68 86 72" fill="none" stroke-width="2.5" stroke="#F2A7A0"/><path d="M12 62 C12 44 30 32 56 32 C82 32 100 44 100 62 C90 54 74 50 56 50 C38 50 22 54 12 62Z" fill="#E3B779"/><path d="M28 52 L40 38 M42 50 L54 35 M56 50 L68 35 M70 51 L82 38 M30 40 L42 50 M44 36 L56 50 M58 35 L70 50 M72 37 L84 50" fill="none" stroke-width="2.6" stroke="#B5763A"/><path d="M22 46 C28 40 36 37 44 36" fill="none" stroke="#fff" stroke-width="3" opacity="0.85"/></g></svg>