<svg xmlns="http://www.w3.org/2000/svg" viewBox="0 0 112 112"><g stroke="#1E3B36" stroke-width="4" stroke-linecap="round" stroke-linejoin="round"><circle cx="56" cy="66" r="32" fill="#f6a03a" stroke-width="4"/><g transform="translate(56 34) rotate(-150)"><path d="M0 0 C9.0 -11.0 23.4 -9.9 30 0 C23.4 9.9 9.0 11.0 0 0Z" fill="#3f7d4e" stroke-width="4"/><path d="M4.2 0 L23.4 0" fill="none" stroke-width="2.5"/></g><g transform="translate(56 34) rotate(-35)"><path d="M0 0 C9.0 -11.0 23.4 -9.9 30 0 C23.4 9.9 9.0 11.0 0 0Z" fill="#8cc56f" stroke-width="4"/><path d="M4.2 0 L23.4 0" fill="none" stroke-width="2.5"/></g><path d="M34 60 C35 52 40 45 46 42" fill="none" stroke="#fff" stroke-width="4" opacity="0.85"/><circle cx="66" cy="56" r="1.6" fill="#d97a12" stroke="none"/><circle cx="72" cy="70" r="1.6" fill="#d97a12" stroke="none"/><circle cx="56" cy="80" r="1.6" fill="#d97a12" stroke="none"/><circle cx="44" cy="72" r="1.6" fill="#d97a12" stroke="none"/></g></svg>
