<svg xmlns="http://www.w3.org/2000/svg" viewBox="0 0 112 112"><g stroke="#1E3B36" stroke-width="4" stroke-linecap="round" stroke-linejoin="round"><path d="M56 108 L56 84" fill="none"/><g transform="translate(56 86) rotate(-125)"><path d="M0 0 C18.6 -20.0 48.4 -18.0 62 0 C48.4 18.0 18.6 20.0 0 0Z" fill="#8fa883"/><path d="M7.4 0 L49.6 0" fill="none" stroke="#1E3B36" stroke-width="2.5"/></g><g transform="translate(56 86) rotate(-55)"><path d="M0 0 C18.6 -20.0 48.4 -18.0 62 0 C48.4 18.0 18.6 20.0 0 0Z" fill="#8fa883"/><path d="M7.4 0 L49.6 0" fill="none" stroke="#1E3B36" stroke-width="2.5"/></g><g transform="translate(56 86) rotate(-90)"><path d="M0 0 C18.6 -20.0 48.4 -18.0 62 0 C48.4 18.0 18.6 20.0 0 0Z" fill="#a9bf9b"/><path d="M7.4 0 L49.6 0" fill="none" stroke="#1E3B36" stroke-width="2.5"/></g><circle cx="50" cy="50" r="1.6" fill="#d7e3c7" stroke="none"/><circle cx="58" cy="40" r="1.6" fill="#d7e3c7" stroke="none"/><circle cx="54" cy="62" r="1.6" fill="#d7e3c7" stroke="none"/><circle cx="62" cy="56" r="1.6" fill="#d7e3c7" stroke="none"/><circle cx="30" cy="58" r="1.6" fill="#d7e3c7" stroke="none"/><circle cx="36" cy="48" r="1.6" fill="#d7e3c7" stroke="none"/><circle cx="80" cy="48" r="1.6" fill="#d7e3c7" stroke="none"/><circle cx="86" cy="60" r="1.6" fill="#d7e3c7" stroke="none"/><circle cx="74" cy="58" r="1.6" fill="#d7e3c7" stroke="none"/></g></svg>
